<!--?xml version="1.0" standalone="no"?-->
              <svg id="sw-js-blob-svg" viewBox="0 0 100 100" xmlns="http://www.w3.org/2000/svg" version="1.1">
                    <defs> 
                        <linearGradient id="sw-gradient" x1="0" x2="1" y1="1" y2="0">
                            <stop id="stop1" stop-color="rgba(248, 117, 55, 1)" offset="0%"></stop>
                            <stop id="stop2" stop-color="rgba(251, 168, 31, 1)" offset="100%"></stop>
                        </linearGradient>
                    </defs>
                <path fill="url(#sw-gradient)" d="M10,-20.7C13.2,-15.4,16.2,-13.3,18.7,-10.4C21.1,-7.4,22.9,-3.7,22.8,-0.1C22.7,3.6,20.8,7.2,19.8,12.7C18.9,18.2,19,25.6,15.8,30.3C12.7,34.9,6.3,36.8,2.4,32.6C-1.5,28.3,-2.9,18,-8.2,14.6C-13.6,11.2,-22.8,14.8,-26,13.6C-29.2,12.3,-26.5,6.2,-27.4,-0.5C-28.3,-7.2,-32.8,-14.4,-32.7,-21C-32.6,-27.7,-27.8,-33.8,-21.6,-37.3C-15.4,-40.9,-7.7,-41.8,-2.2,-38.1C3.4,-34.4,6.8,-26,10,-20.7Z" width="100%" height="100%" transform="translate(50 50)" stroke-width="0" style="transition: all 0.3s ease 0s;"></path>
              </svg>