<svg width="97" height="79" viewBox="0 0 97 79" fill="none" xmlns="http://www.w3.org/2000/svg">
<path d="M34.6809 74.3671C30.7088 77.6988 24.3151 77.8727 20.4003 74.7556C16.4855 71.6385 16.532 66.4106 20.5041 63.0789C24.4762 59.7472 30.8699 59.5732 34.7847 62.6904C38.6995 65.8075 38.653 71.0353 34.6809 74.3671Z" fill="url(#paint0_linear_2_56)"/>
<path d="M92.4363 37.5329C95.586 40.0409 95.638 44.1721 92.5523 46.7603C89.4666 49.3485 84.4118 49.4135 81.2621 46.9055L80.8732 46.5959C77.5087 43.9169 72.1093 43.9864 68.8132 46.751L51.5242 61.2526C47.6321 64.5172 41.2561 64.5993 37.2832 61.4358C33.3102 58.2723 33.2447 53.0614 37.1368 49.7967L54.4893 35.2419C57.7503 32.5067 57.6954 28.1407 54.3667 25.4902L54.0426 25.2322C50.8929 22.7243 50.841 18.593 53.9266 16.0049C57.0123 13.4167 62.0671 13.3517 65.2168 15.8596L92.4363 37.5329Z" fill="#4A2E99"/>
<path d="M94.6033 39.2584C97.753 41.7663 97.805 45.8976 94.7193 48.4858C91.6336 51.0739 86.5789 51.1389 83.4291 48.631L83.0402 48.3214C79.6757 45.6424 74.2763 45.7119 70.9803 48.4765L53.6912 62.9781C49.7991 66.2427 43.4232 66.3247 39.4502 63.1613C35.4772 59.9978 35.4117 54.7868 39.3038 51.5222L56.6563 36.9674C59.9173 34.2322 59.8624 29.8662 56.5337 27.2157L56.2097 26.9577C53.0599 24.4497 53.008 20.3185 56.0936 17.7303C59.1793 15.1422 64.2341 15.0771 67.3838 17.5851L94.6033 39.2584Z" fill="url(#paint1_linear_2_56)"/>
<path d="M67.4811 17.6625C70.6308 20.1705 70.6828 24.3017 67.5971 26.8899C64.5114 29.4781 59.4566 29.5431 56.3069 27.0351L47.1689 19.7591C45.4151 18.3626 42.6005 18.3988 40.8823 19.84C39.1642 21.2811 39.1931 23.5814 40.9469 24.9779L43.0076 26.6187C45.8996 28.9214 45.9473 32.7145 43.1142 35.0908L42.7709 35.3787C39.9379 37.755 35.2968 37.8147 32.4049 35.5121C29.5129 33.2094 24.8719 33.2691 22.0388 35.6454L17.2642 39.6502C13.372 42.9149 6.99611 42.9969 3.02313 39.8334C-0.949844 36.67 -1.01537 31.459 2.87678 28.1944L33.3399 2.64269C37.449 -0.803923 44.1804 -0.890512 48.3748 2.44928L67.4811 17.6625Z" fill="#4A2E99"/>
<path d="M37.2125 76.3828C33.2403 79.7145 26.8467 79.8885 22.9319 76.7713C19.0171 73.6542 19.0635 68.4264 23.0357 65.0946C27.0078 61.7629 33.4015 61.589 37.3163 64.7061C41.2311 67.8233 41.1846 73.0511 37.2125 76.3828Z" fill="#4A2E99"/>
<defs>
<linearGradient id="paint0_linear_2_56" x1="48.5" y1="0" x2="48.5" y2="79" gradientUnits="userSpaceOnUse">
<stop stop-color="#A280FF"/>
<stop offset="1" stop-color="#A280FF" stop-opacity="0"/>
</linearGradient>
<linearGradient id="paint1_linear_2_56" x1="48.5" y1="0" x2="48.5" y2="79" gradientUnits="userSpaceOnUse">
<stop stop-color="#A280FF"/>
<stop offset="1" stop-color="#A280FF" stop-opacity="0"/>
</linearGradient>
</defs>
</svg>
